<?xml version="1.0" encoding="UTF-8" standalone="no"?>
<svg
   xmlns:dc="http://purl.org/dc/elements/1.1/"
   xmlns:cc="http://creativecommons.org/ns#"
   xmlns:rdf="http://www.w3.org/1999/02/22-rdf-syntax-ns#"
   xmlns:svg="http://www.w3.org/2000/svg"
   xmlns="http://www.w3.org/2000/svg"
   id="svg24"
   xml:space="preserve"
   viewBox="0 0 6000 3000"
   height="3000"
   width="6000"
   version="1.1"><metadata
     id="metadata28"><rdf:RDF><cc:Work
         rdf:about=""><dc:format>image/svg+xml</dc:format><dc:type
           rdf:resource="http://purl.org/dc/dcmitype/StillImage" /></cc:Work></rdf:RDF></metadata><desc
     id="desc2">Created with Fabric.js 4.2.0</desc><defs
     id="defs4" /><rect
     id="rect6"
     fill="transparent"
     height="100%"
     width="100%"
     y="0"
     x="0" /><g
     id="337ab923-8277-4fd7-9514-b1abf9ebe127"
     transform="matrix(1 0 0 1 3000 1500)"><rect
       id="rect8"
       height="3000"
       width="6000"
       ry="0"
       rx="0"
       y="-1500"
       x="-3000"
       vector-effect="non-scaling-stroke"
       style="stroke: none; stroke-width: 1; stroke-dasharray: none; stroke-linecap: butt; stroke-dashoffset: 0; stroke-linejoin: miter; stroke-miterlimit: 4; fill: rgb(0,0,0); fill-opacity: 0; fill-rule: nonzero; opacity: 1;" /></g><g
     id="4271fe6e-4261-46c5-81d5-ece68e806c91"
     transform="matrix(Infinity NaN NaN Infinity 0 0)" /><g
     id="g22"
     transform="matrix(7.88 0 0 7.88 3000 1500)"><g
       id="g20"
       vector-effect="non-scaling-stroke"
       style="opacity: 1;"><g
         id="g14"
         transform="matrix(3.52 0 0 3.52 0 -27.87)"><path
           id="path12"
           stroke-linecap="round"
           d="M 3.94 13.620000000000001 C 3.51334 13.446660000000001 3.1166799999999997 13.253340000000001 2.75 13.040000000000001 C 2.3833200000000003 12.82666 2.06668 12.57 1.80002 12.270000000000001 C 1.53336 11.970000000000002 1.3267 11.616660000000001 1.18004 11.21 C 1.03338 10.80334 0.96004 10.32 0.96004 9.760000000000002 C 0.96004 9.066660000000002 1.08004 8.456700000000001 1.32004 7.9300000000000015 C 1.5600400000000003 7.4033000000000015 1.8967 6.960000000000002 2.3300400000000003 6.600000000000001 C 2.7633800000000006 6.240000000000001 3.2867200000000003 5.966660000000001 3.9000400000000006 5.780000000000001 C 4.5133600000000005 5.593340000000001 5.193340000000001 5.500000000000001 5.940040000000001 5.500000000000001 C 6.553380000000001 5.500000000000001 7.180040000000001 5.563340000000001 7.8200400000000005 5.690000000000001 C 8.46004 5.8166600000000015 9.226740000000001 6.033320000000002 10.12004 6.3399800000000015 L 8.76004 8.779980000000002 C 7.8933800000000005 8.366640000000002 6.98004 8.159980000000003 6.02004 8.159980000000003 C 5.83338 8.159980000000003 5.64004 8.179980000000002 5.44004 8.219980000000003 C 5.24004 8.259980000000004 5.06004 8.329980000000003 4.90004 8.429980000000004 C 4.74004 8.529980000000005 4.6067 8.666640000000005 4.500039999999999 8.839980000000004 C 4.393379999999999 9.013320000000004 4.340039999999999 9.239980000000005 4.340039999999999 9.519980000000004 C 4.340039999999999 9.746640000000005 4.383379999999999 9.933300000000004 4.470039999999999 10.079960000000003 C 4.556699999999999 10.226620000000002 4.666699999999999 10.353280000000003 4.800039999999999 10.459940000000003 C 4.93338 10.566600000000003 5.086719999999999 10.656600000000003 5.260059999999999 10.729940000000003 C 5.4334 10.803280000000003 5.606739999999999 10.873280000000003 5.780079999999999 10.939940000000004 L 6.960079999999999 11.399940000000004 C 7.466739999999999 11.599940000000004 7.9300799999999985 11.809940000000005 8.350079999999998 12.029940000000005 C 8.770079999999998 12.249940000000006 9.126739999999998 12.516600000000006 9.420079999999999 12.829940000000006 C 9.71342 13.143280000000006 9.940079999999998 13.526620000000007 10.100079999999998 13.979940000000006 C 10.260079999999999 14.433260000000006 10.340079999999999 14.999940000000006 10.340079999999999 15.679940000000006 C 10.340079999999999 16.359940000000005 10.216739999999998 16.979940000000006 9.97008 17.539940000000005 C 9.72342 18.099940000000004 9.36342 18.576640000000005 8.89008 18.969940000000005 C 8.416739999999999 19.363240000000005 7.833379999999999 19.669940000000004 7.140079999999999 19.889940000000006 C 6.4467799999999995 20.10994000000001 5.653379999999999 20.219940000000005 4.760079999999999 20.219940000000005 C 4.34674 20.219940000000005 3.9667399999999993 20.206600000000005 3.6200799999999997 20.179940000000006 C 3.27342 20.153280000000006 2.9367599999999996 20.106620000000007 2.61008 20.039960000000004 C 2.2834000000000003 19.973300000000002 1.95676 19.893300000000004 1.6301 19.799960000000006 C 1.3034400000000002 19.706620000000008 0.9534400000000001 19.586620000000007 0.5801000000000001 19.439960000000006 L 1.2601 16.639960000000006 C 1.8067600000000001 16.786620000000006 2.3434 16.916620000000005 2.8701 17.029960000000006 C 3.3968 17.143300000000007 3.9334 17.199960000000008 4.4801 17.199960000000008 C 5.21344 17.199960000000008 5.7734000000000005 17.103300000000008 6.1601 16.90996000000001 C 6.546799999999999 16.71662000000001 6.77342 16.34662000000001 6.84008 15.79996000000001 C 6.86674 15.51996000000001 6.8334004 15.28662000000001 6.740060000000001 15.09996000000001 C 6.646719600000001 14.91330000000001 6.513380000000001 14.75664000000001 6.340040000000001 14.62998000000001 C 6.166700000000001 14.503320000000011 5.973360000000001 14.39998000000001 5.760020000000001 14.31998000000001 L 5.120020000000001 14.07998000000001 z M 17.9 20.22 C 16.8067 20.22 15.876599999999998 20.03334 15.11 19.66 C 14.3434 19.28666 13.7167 18.773320000000002 13.23 18.12 C 12.743300000000001 17.46668 12.38668 16.69 12.16 15.790000000000001 C 11.93332 14.89 11.82 13.9067 11.82 12.84 C 11.82 11.773299999999999 11.933340000000001 10.79 12.16 9.89 C 12.38666 8.990000000000002 12.74332 8.216700000000001 13.23 7.57 C 13.71668 6.923299999999999 14.343300000000001 6.42 15.11 6.0600000000000005 C 15.876699999999998 5.700000000000001 16.8067 5.5200000000000005 17.9 5.5200000000000005 C 18.993299999999998 5.5200000000000005 19.923399999999997 5.7 20.689999999999998 6.0600000000000005 C 21.456599999999998 6.420000000000001 22.083299999999998 6.9233400000000005 22.569999999999997 7.57 C 23.056699999999996 8.216660000000001 23.409999999999997 8.99 23.629999999999995 9.89 C 23.849999999999994 10.790000000000001 23.959999999999994 11.7733 23.959999999999994 12.84 C 23.959999999999994 13.906699999999999 23.849999999999994 14.89 23.629999999999995 15.79 C 23.409999999999997 16.689999999999998 23.056659999999994 17.4667 22.569999999999997 18.119999999999997 C 22.08334 18.773299999999995 21.456699999999998 19.286699999999996 20.689999999999998 19.659999999999997 C 19.923299999999998 20.033299999999997 18.993299999999998 20.219999999999995 17.9 20.219999999999995 z M 17.9 17.42 C 18.82 17.42 19.4833 17.040000000000003 19.889999999999997 16.28 C 20.296699999999994 15.52 20.499999999999996 14.3733 20.499999999999996 12.840000000000002 C 20.499999999999996 11.306700000000003 20.303339999999995 10.180000000000001 19.909999999999997 9.46 C 19.516659999999998 8.74 18.853299999999997 8.38 17.919999999999998 8.38 C 16.973339999999997 8.38 16.296699999999998 8.74 15.889999999999999 9.46 C 15.4833 10.180000000000001 15.28 11.306700000000001 15.28 12.84 C 15.28 14.373299999999999 15.48334 15.52 15.889999999999999 16.28 C 16.296659999999996 17.040000000000003 16.9667 17.42 17.9 17.42 z M 35.64 19.66 C 35.08 19.88666 34.5434 20.03664 34.03 20.10998 C 33.516600000000004 20.183320000000002 32.9467 20.21998 32.32 20.21998 C 31.186700000000002 20.21998 30.1934 20.03998 29.34 19.67998 C 28.4866 19.31998 27.776699999999998 18.81664 27.21 18.16998 C 26.643300000000004 17.52332 26.21668 16.75328 25.93 15.859979999999998 C 25.64332 14.966679999999997 25.5 13.986679999999998 25.5 12.919979999999999 C 25.5 11.85328 25.64666 10.866579999999999 25.94 9.959979999999998 C 26.233340000000002 9.053379999999997 26.66334 8.273279999999998 27.23 7.619979999999998 C 27.79666 6.966679999999998 28.5 6.456679999999999 29.34 6.089979999999998 C 30.18 5.723279999999997 31.14 5.539979999999998 32.22 5.539979999999998 C 32.84666 5.539979999999998 33.4133 5.599979999999998 33.92 5.719979999999998 C 34.426700000000004 5.839979999999998 34.92 6.006639999999998 35.4 6.219979999999998 L 34.58 8.879979999999998 C 34.31334 8.759979999999999 34.01668 8.653319999999997 33.69002 8.559979999999998 C 33.36335999999999 8.466639999999998 32.97336 8.419979999999997 32.520019999999995 8.419979999999997 C 30.146619999999995 8.419979999999997 28.960019999999997 9.919979999999997 28.960019999999997 12.919979999999997 C 28.960019999999997 14.426679999999998 29.266679999999997 15.539979999999996 29.88002 16.25998 C 30.49336 16.97998 31.440019999999997 17.339979999999997 32.72002 17.339979999999997 C 33.146679999999996 17.339979999999997 33.52334 17.309979999999996 33.85002 17.249979999999997 C 34.176700000000004 17.18998 34.50002 17.09998 34.82002 16.979979999999998 z M 37.56 5.699999999999999 L 40.82 5.699999999999999 L 40.82 20 L 37.56 20 L 37.56 5.699999999999999 z M 48.94 20.22 C 47.8467 20.22 46.916599999999995 20.03334 46.15 19.66 C 45.3834 19.28666 44.756699999999995 18.773320000000002 44.269999999999996 18.12 C 43.7833 17.46668 43.42668 16.69 43.199999999999996 15.790000000000001 C 42.973319999999994 14.89 42.85999999999999 13.9067 42.85999999999999 12.84 C 42.85999999999999 11.773299999999999 42.97333999999999 10.79 43.199999999999996 9.89 C 43.42666 8.990000000000002 43.783319999999996 8.216700000000001 44.269999999999996 7.57 C 44.756679999999996 6.923299999999999 45.3833 6.42 46.15 6.0600000000000005 C 46.9167 5.700000000000001 47.8467 5.5200000000000005 48.94 5.5200000000000005 C 50.0333 5.5200000000000005 50.9634 5.7 51.73 6.0600000000000005 C 52.496599999999994 6.420000000000001 53.1233 6.9233400000000005 53.61 7.57 C 54.0967 8.216660000000001 54.45 8.99 54.67 9.89 C 54.89 10.790000000000001 55 11.7733 55 12.84 C 55 13.906699999999999 54.89 14.89 54.67 15.79 C 54.45 16.689999999999998 54.09666 17.4667 53.61 18.119999999999997 C 53.12334 18.773299999999995 52.4967 19.286699999999996 51.73 19.659999999999997 C 50.9633 20.033299999999997 50.0333 20.219999999999995 48.94 20.219999999999995 z M 48.94 17.42 C 49.86 17.42 50.5233 17.040000000000003 50.93 16.28 C 51.3367 15.52 51.54 14.3733 51.54 12.840000000000002 C 51.54 11.306700000000003 51.34334 10.180000000000001 50.949999999999996 9.46 C 50.556659999999994 8.74 49.893299999999996 8.38 48.959999999999994 8.38 C 48.01333999999999 8.38 47.33669999999999 8.74 46.92999999999999 9.46 C 46.52329999999999 10.180000000000001 46.31999999999999 11.306700000000001 46.31999999999999 12.84 C 46.31999999999999 14.373299999999999 46.52333999999999 15.52 46.92999999999999 16.28 C 47.336659999999995 17.040000000000003 48.006699999999995 17.42 48.93999999999999 17.42 z M 57.1 5.699999999999999 L 60.28 5.699999999999999 L 60.28 17.119999999999997 L 62.58 17.119999999999997 L 63.08 17.179999999999996 L 63.08 15.819999999999997 L 65.78 14.559999999999997 L 65.78 19.999999999999996 L 57.1 19.999999999999996 L 57.1 5.699999999999996 z M 67.74000000000001 5.699999999999999 L 71.00000000000001 5.699999999999999 L 71.00000000000001 20 L 67.74000000000001 20 L 67.74000000000001 5.699999999999999 z M 76.06 8.54 L 72.64 8.54 L 72.64 5.699999999999999 L 82.94 5.699999999999999 L 82.48 7.1 L 82.02000000000001 8.54 L 79.34 8.54 L 79.4 9.1 L 79.4 20 L 76.06 20 L 76.06 8.54 z M 84.50000000000001 5.699999999999999 L 87.76000000000002 5.699999999999999 L 87.76000000000002 20 L 84.50000000000001 20 L 84.50000000000001 5.699999999999999 z M 99.92 19.66 C 99.36 19.88666 98.8234 20.03664 98.31 20.10998 C 97.7966 20.183320000000002 97.22670000000001 20.21998 96.60000000000001 20.21998 C 95.4667 20.21998 94.47340000000001 20.03998 93.62 19.67998 C 92.7666 19.31998 92.0567 18.81664 91.49000000000001 18.16998 C 90.92330000000001 17.52332 90.49668000000001 16.75328 90.21000000000001 15.859979999999998 C 89.92332 14.966679999999997 89.78 13.986679999999998 89.78 12.919979999999999 C 89.78 11.85328 89.92666 10.866579999999999 90.22 9.959979999999998 C 90.51334 9.053379999999997 90.94333999999999 8.273279999999998 91.51 7.619979999999998 C 92.07666000000002 6.966679999999998 92.78 6.456679999999999 93.62 6.089979999999998 C 94.46000000000001 5.723279999999997 95.42 5.539979999999998 96.5 5.539979999999998 C 97.12666 5.539979999999998 97.6933 5.599979999999998 98.2 5.719979999999998 C 98.70670000000001 5.839979999999998 99.2 6.006639999999998 99.68 6.219979999999998 L 98.86000000000001 8.879979999999998 C 98.59334000000001 8.759979999999999 98.29668000000001 8.653319999999997 97.97002000000002 8.559979999999998 C 97.64336000000003 8.466639999999998 97.25336000000001 8.419979999999997 96.80002000000002 8.419979999999997 C 94.42662000000001 8.419979999999997 93.24002000000002 9.919979999999997 93.24002000000002 12.919979999999997 C 93.24002000000002 14.426679999999998 93.54668000000001 15.539979999999996 94.16002000000002 16.25998 C 94.77336000000003 16.97998 95.72002000000002 17.339979999999997 97.00002000000002 17.339979999999997 C 97.42668000000002 17.339979999999997 97.80334000000002 17.309979999999996 98.13002000000002 17.249979999999997 C 98.45670000000001 17.18998 98.78002000000002 17.09998 99.10002000000001 16.979979999999998 z"
           transform=" translate(-50.25, -12.86)"
           vector-effect="non-scaling-stroke"
           style="stroke: none; stroke-width: 1; stroke-dasharray: none; stroke-linecap: butt; stroke-dashoffset: 0; stroke-linejoin: miter; stroke-miterlimit: 4; fill: rgb(17,17,17); fill-rule: nonzero; opacity: 1;" /></g><g
         id="g18"
         transform="matrix(1.05 0 0 1.05 -0.16 46)"><path
           id="path16"
           stroke-linecap="round"
           d="M 8 5.84 L 14.059999999999999 20 L 11.819999999999999 20 L 10.399999999999999 16.5 L 3.6599999999999984 16.5 L 2.2599999999999985 20 L 0.01999999999999824 20 L 6.259999999999998 5.84 L 7.999999999999998 5.84 z M 4.34 14.82 L 9.7 14.82 L 7.059999999999999 8.32 L 7.019999999999999 8.32 z M 31.452000000000005 5.84 L 31.452000000000005 20 L 29.532000000000004 20 L 29.532000000000004 5.84 L 31.452000000000005 5.84 z M 69.836 5.84 L 69.836 20 L 67.916 20 L 67.916 5.84 L 69.836 5.84 z M 89.62800000000001 5.84 L 97.42800000000001 17.48 L 97.46800000000002 17.48 L 97.46800000000002 5.84 L 99.38800000000002 5.84 L 99.38800000000002 20 L 96.94800000000002 20 L 89.06800000000003 8.36 L 89.02800000000002 8.36 L 89.02800000000002 20 L 87.10800000000002 20 L 87.10800000000002 5.84 L 89.62800000000001 5.84 z M 120.72 5.48 C 122.56 5.48 123.92 6.020060000000001 124.8 7.1001 L 123.24 8.5201 C 123 8.146759999999999 122.66 7.84676 122.22 7.620099999999999 C 121.78 7.393439999999998 121.27334 7.280099999999999 120.7 7.280099999999999 C 119.87334 7.280099999999999 119.21000000000001 7.483439999999999 118.71000000000001 7.8900999999999994 C 118.21000000000001 8.296759999999999 117.96000000000001 8.8201 117.96000000000001 9.460099999999999 C 117.96000000000001 10.526799999999998 118.66666000000001 11.273399999999999 120.08000000000001 11.700099999999999 L 121.86000000000001 12.2801 C 122.86000000000001 12.6001 123.62330000000001 13.046759999999999 124.15000000000002 13.620099999999999 C 124.67670000000003 14.193439999999999 124.94000000000003 14.980099999999998 124.94000000000003 15.980099999999998 C 124.94000000000003 17.2868 124.47666000000002 18.3435 123.55000000000003 19.1501 C 122.62334000000003 19.956699999999998 121.44660000000003 20.3601 120.02000000000002 20.3601 C 117.98000000000002 20.3601 116.47340000000003 19.70676 115.50000000000003 18.4001 L 117.08000000000003 17.0401 C 117.38666000000002 17.5201 117.80666000000002 17.89344 118.34000000000003 18.1601 C 118.87334000000004 18.42676 119.45330000000003 18.5601 120.08000000000003 18.5601 C 120.86666000000002 18.5601 121.53330000000003 18.33344 122.08000000000003 17.8801 C 122.62670000000003 17.426759999999998 122.90000000000002 16.866799999999998 122.90000000000002 16.2001 C 122.90000000000002 15.70676 122.73334000000003 15.29342 122.40000000000002 14.960099999999999 C 122.06666000000001 14.626779999999998 121.46666000000002 14.326759999999998 120.60000000000002 14.060099999999998 L 119.34000000000002 13.640099999999999 C 118.07330000000002 13.213439999999999 117.18660000000001 12.670099999999998 116.68000000000002 12.010099999999998 C 116.17340000000003 11.350099999999998 115.92000000000002 10.500099999999998 115.92000000000002 9.460099999999997 C 115.92000000000002 8.353399999999997 116.36666000000001 7.413499999999997 117.26000000000002 6.640099999999997 C 118.15334000000003 5.866699999999996 119.30660000000002 5.480099999999997 120.72000000000001 5.480099999999997 z M 143.33200000000002 5.84 L 143.33200000000002 20 L 141.41200000000003 20 L 141.41200000000003 5.84 L 143.33200000000002 5.84 z M 167.12400000000002 5.48 C 169.48400000000004 5.48 171.23740000000004 6.0933 172.38400000000001 7.32 L 171.024 8.780000000000001 C 169.9707 7.780000000000001 168.664 7.280000000000001 167.104 7.280000000000001 C 165.54400000000004 7.280000000000001 164.264 7.8166600000000015 163.264 8.89 C 162.264 9.963339999999999 161.764 11.3066 161.764 12.920000000000002 C 161.764 14.546700000000001 162.294 15.893400000000002 163.354 16.96 C 164.41400000000002 18.026600000000002 165.71740000000003 18.560000000000002 167.264 18.560000000000002 C 168.7307 18.560000000000002 169.8906 18.313340000000004 170.744 17.820000000000004 L 170.744 13.880000000000004 L 167.604 13.880000000000004 L 167.604 12.080000000000004 L 172.66400000000002 12.080000000000004 L 172.66400000000002 19.060000000000002 C 171.97066 19.473340000000004 171.13400000000001 19.79334 170.15400000000002 20.020000000000003 C 169.17400000000004 20.246660000000006 168.22400000000002 20.360000000000003 167.30400000000003 20.360000000000003 C 165.07740000000004 20.360000000000003 163.25740000000002 19.666660000000004 161.84400000000002 18.28 C 160.43060000000003 16.89334 159.72400000000002 15.1066 159.72400000000002 12.920000000000002 C 159.72400000000002 10.813400000000001 160.42066000000003 9.046600000000002 161.81400000000002 7.620000000000002 C 163.20734000000002 6.193400000000002 164.97740000000002 5.480000000000002 167.12400000000002 5.480000000000002 z M 191.71600000000004 5.84 L 191.71600000000004 11.719999999999999 L 199.05600000000004 11.719999999999999 L 199.05600000000004 5.839999999999999 L 200.97600000000003 5.839999999999999 L 200.97600000000003 20 L 199.05600000000004 20 L 199.05600000000004 13.52 L 191.71600000000004 13.52 L 191.71600000000004 20 L 189.79600000000005 20 L 189.79600000000005 5.84 L 191.71600000000004 5.84 z M 227.68800000000002 5.84 L 227.68800000000002 7.64 L 223.12800000000001 7.64 L 223.12800000000001 20 L 221.20800000000003 20 L 221.20800000000003 7.640000000000001 L 216.64800000000002 7.640000000000001 L 216.64800000000002 5.840000000000001 L 227.68800000000002 5.840000000000001 z M 247.42000000000002 5.48 C 249.26000000000002 5.48 250.62 6.020060000000001 251.50000000000003 7.1001 L 249.94000000000003 8.5201 C 249.70000000000002 8.146759999999999 249.36 7.84676 248.92000000000002 7.620099999999999 C 248.48000000000002 7.393439999999998 247.97334 7.280099999999999 247.4 7.280099999999999 C 246.57334 7.280099999999999 245.91 7.483439999999999 245.41 7.8900999999999994 C 244.91 8.296759999999999 244.66 8.8201 244.66 9.460099999999999 C 244.66 10.526799999999998 245.36666 11.273399999999999 246.78 11.700099999999999 L 248.56 12.2801 C 249.56 12.6001 250.3233 13.046759999999999 250.85 13.620099999999999 C 251.3767 14.193439999999999 251.64 14.980099999999998 251.64 15.980099999999998 C 251.64 17.2868 251.17666 18.3435 250.25 19.1501 C 249.32334 19.956699999999998 248.1466 20.3601 246.72 20.3601 C 244.68 20.3601 243.1734 19.70676 242.2 18.4001 L 243.78 17.0401 C 244.08666 17.5201 244.50666 17.89344 245.04 18.1601 C 245.57333999999997 18.42676 246.1533 18.5601 246.78 18.5601 C 247.56666 18.5601 248.2333 18.33344 248.78 17.8801 C 249.3267 17.426759999999998 249.6 16.866799999999998 249.6 16.2001 C 249.6 15.70676 249.43334 15.29342 249.1 14.960099999999999 C 248.76666 14.626779999999998 248.16666 14.326759999999998 247.29999999999998 14.060099999999998 L 246.04 13.640099999999999 C 244.7733 13.213439999999999 243.8866 12.670099999999998 243.38 12.010099999999998 C 242.8734 11.350099999999998 242.62 10.500099999999998 242.62 9.460099999999997 C 242.62 8.353399999999997 243.06666 7.413499999999997 243.96 6.640099999999997 C 244.85334 5.866699999999996 246.00660000000002 5.480099999999997 247.42000000000002 5.480099999999997 z"
           transform=" translate(-125.83, -12.92)"
           vector-effect="non-scaling-stroke"
           style="stroke: none; stroke-width: 1; stroke-dasharray: none; stroke-linecap: butt; stroke-dashoffset: 0; stroke-linejoin: miter; stroke-miterlimit: 4; fill: rgb(17,17,17); fill-rule: nonzero; opacity: 1;" /></g></g></g></svg>