<?xml version="1.0" standalone="no"?>
<!DOCTYPE svg PUBLIC "-//W3C//DTD SVG 20010904//EN"
 "http://www.w3.org/TR/2001/REC-SVG-20010904/DTD/svg10.dtd">
<svg version="1.0" xmlns="http://www.w3.org/2000/svg"
 width="2982.000000pt" height="1106.000000pt" viewBox="0 0 2982.000000 1106.000000"
 preserveAspectRatio="xMidYMid meet">
<metadata>
Created by potrace 1.16, written by Peter Selinger 2001-2019
</metadata>
<g transform="translate(0.000000,1106.000000) scale(0.100000,-0.100000)"
fill="#000000" stroke="none">
<path d="M2410 10289 c-219 -19 -387 -63 -555 -144 -141 -69 -207 -114 -300
-204 -107 -104 -169 -194 -243 -356 -47 -101 -82 -309 -82 -480 1 -192 47
-422 100 -500 12 -16 35 -57 52 -90 35 -69 211 -250 270 -278 20 -10 50 -28
65 -41 37 -31 215 -120 295 -147 35 -12 65 -25 68 -29 5 -7 68 -31 315 -121
44 -16 88 -34 98 -39 9 -6 51 -24 92 -40 41 -16 92 -41 113 -54 43 -28 116
-105 138 -148 25 -49 36 -142 24 -211 -11 -61 -36 -137 -48 -147 -4 -3 -24
-26 -45 -53 -43 -53 -80 -75 -182 -106 -198 -62 -556 -56 -882 15 -214 46
-328 74 -352 86 -34 18 -42 1 -79 -159 -17 -76 -48 -210 -68 -298 -20 -88 -40
-164 -44 -170 -4 -5 -13 -35 -19 -65 -7 -30 -14 -64 -17 -75 -4 -17 4 -23 53
-40 32 -11 61 -23 64 -28 18 -25 459 -131 598 -144 36 -3 69 -11 73 -17 10
-16 656 -15 689 0 13 7 60 17 104 23 119 18 278 59 380 99 50 20 92 39 95 42
3 4 48 29 100 56 70 37 121 73 199 144 57 52 109 104 115 115 6 11 27 38 47
61 38 43 105 173 133 259 9 28 23 64 31 80 19 41 43 181 50 295 11 157 -20
450 -54 525 -25 53 -51 119 -51 127 0 6 -21 46 -47 89 -83 139 -238 282 -388
356 -38 18 -74 38 -80 43 -14 12 -234 110 -246 110 -5 0 -50 19 -101 41 -80
37 -175 73 -388 151 -30 11 -57 23 -60 27 -3 4 -35 24 -73 45 -82 45 -111 75
-145 146 -35 74 -37 196 -3 282 41 105 179 196 331 216 104 13 404 -6 435 -28
6 -4 53 -17 105 -30 52 -13 147 -43 210 -68 63 -25 116 -41 117 -36 2 5 16 30
31 56 15 26 49 86 76 135 45 82 91 162 142 251 45 78 124 232 124 241 0 10
-60 31 -225 77 -55 15 -102 31 -105 35 -7 10 -239 65 -350 83 -236 39 -507 52
-700 35z"/>
<path d="M5680 10279 c-47 -5 -123 -16 -170 -24 -88 -16 -281 -72 -290 -84 -3
-4 -34 -20 -70 -35 -67 -29 -200 -106 -235 -137 -57 -49 -103 -87 -130 -108
-72 -55 -225 -266 -283 -391 -19 -41 -39 -78 -43 -81 -23 -14 -115 -313 -139
-454 -7 -38 -16 -74 -20 -80 -17 -24 -45 -281 -55 -500 -10 -226 27 -734 55
-770 4 -5 11 -30 15 -55 25 -154 117 -457 146 -480 3 -3 22 -39 42 -80 49
-102 83 -160 110 -190 13 -14 44 -52 69 -85 92 -121 328 -312 422 -341 11 -4
23 -10 26 -14 24 -35 252 -111 405 -135 61 -10 121 -23 134 -29 33 -15 519
-15 552 0 13 6 74 19 134 29 153 24 381 100 405 135 3 4 15 10 26 14 94 29
339 228 426 346 22 30 46 60 53 65 20 17 120 189 140 242 10 27 24 54 31 60
24 25 104 291 129 433 4 19 15 71 25 115 33 141 45 307 45 610 0 276 -13 483
-36 565 -5 19 -19 82 -30 140 -36 181 -116 444 -140 460 -4 3 -25 44 -47 90
-66 142 -194 307 -323 415 -39 33 -79 67 -88 76 -31 28 -165 106 -231 135 -36
15 -67 31 -70 35 -9 12 -202 68 -290 83 -196 35 -495 46 -700 25z m462 -824
c106 -27 184 -72 255 -145 36 -38 73 -82 82 -97 29 -49 77 -175 97 -253 10
-41 21 -77 25 -80 14 -11 41 -237 51 -430 9 -156 9 -254 0 -410 -12 -201 -36
-395 -52 -415 -5 -5 -11 -28 -15 -50 -13 -67 -76 -236 -113 -299 -55 -93 -143
-174 -244 -224 -48 -23 -110 -47 -139 -52 -107 -21 -316 -8 -374 22 -14 7 -53
27 -87 45 -140 71 -236 202 -298 403 -17 58 -36 112 -40 121 -4 8 -13 40 -18
70 -31 157 -37 256 -37 599 1 316 3 370 23 494 12 77 25 142 30 145 5 3 14 29
21 56 36 148 96 265 181 352 90 92 189 140 335 163 78 12 245 4 317 -15z"/>
<path d="M9775 10284 c-122 -9 -257 -27 -340 -44 -98 -20 -227 -58 -235 -69
-3 -4 -39 -20 -80 -35 -88 -34 -238 -112 -262 -136 -9 -10 -48 -38 -86 -64
-83 -55 -221 -188 -282 -271 -23 -33 -53 -71 -66 -85 -29 -32 -125 -202 -149
-263 -10 -26 -21 -47 -25 -47 -19 0 -128 -353 -145 -470 -4 -25 -11 -49 -15
-55 -25 -34 -54 -417 -45 -615 7 -175 30 -391 44 -417 5 -10 17 -56 26 -103
19 -100 69 -271 99 -344 40 -97 156 -311 193 -358 21 -26 54 -68 73 -94 48
-66 193 -209 243 -242 23 -15 45 -32 50 -39 21 -33 324 -190 442 -228 94 -31
273 -70 365 -80 36 -4 71 -12 79 -19 21 -17 643 -16 649 2 2 6 20 12 40 12
112 0 507 98 527 130 3 5 -16 79 -41 166 -25 88 -50 173 -54 189 -13 56 -44
150 -50 155 -4 3 -22 60 -41 128 -30 110 -36 123 -54 119 -53 -12 -275 -69
-310 -80 -54 -16 -482 -17 -516 -1 -13 7 -55 20 -94 29 -96 24 -190 62 -253
102 -29 18 -54 33 -56 33 -14 0 -146 147 -186 206 -47 71 -100 194 -122 283
-6 25 -14 51 -18 56 -35 49 -64 465 -48 690 9 140 34 303 48 320 5 6 14 33 20
60 20 83 97 257 137 309 87 113 218 227 308 267 85 38 223 70 347 81 185 17
353 -4 542 -67 77 -25 145 -44 151 -41 7 2 15 15 17 28 10 46 119 410 128 427
23 43 84 266 77 284 -3 8 -40 26 -84 42 -43 15 -80 31 -83 36 -10 14 -268 77
-390 94 -114 16 -379 26 -475 19z"/>
<path d="M14355 10284 c-215 -21 -406 -64 -510 -113 -179 -85 -213 -102 -241
-123 -175 -127 -282 -230 -360 -347 -25 -36 -60 -88 -78 -116 -18 -27 -52 -95
-76 -150 -23 -55 -53 -122 -66 -150 -47 -99 -114 -424 -134 -645 -5 -63 -12
-142 -16 -175 -29 -291 25 -835 112 -1132 15 -48 29 -96 31 -105 3 -10 9 -18
14 -18 5 0 9 -7 9 -16 0 -9 26 -73 58 -142 122 -268 348 -522 569 -638 37 -20
75 -42 84 -50 45 -40 319 -122 464 -139 33 -4 66 -13 74 -19 21 -17 543 -15
548 2 3 6 20 12 38 12 42 0 179 26 275 52 73 20 230 84 240 98 3 4 45 29 94
56 95 52 137 85 256 204 111 111 152 163 206 259 26 47 51 88 55 91 23 16 149
351 149 398 0 9 6 29 14 43 7 14 23 77 34 140 83 446 81 967 -4 1409 -9 47
-20 90 -24 95 -4 6 -15 41 -24 78 -21 84 -81 258 -109 312 -62 124 -167 278
-256 374 -53 56 -107 109 -121 117 -14 7 -44 30 -66 51 -46 42 -190 125 -256
149 -23 8 -45 18 -48 23 -9 16 -204 70 -326 92 -91 16 -171 21 -344 24 -124 2
-243 1 -265 -1z m410 -829 c153 -39 284 -141 343 -267 16 -34 42 -88 56 -119
144 -310 148 -1326 6 -1624 -10 -22 -32 -70 -48 -106 -63 -142 -142 -223 -285
-293 -39 -20 -99 -41 -132 -47 -109 -20 -346 0 -391 33 -6 4 -37 22 -70 39
-86 46 -116 72 -159 136 -21 32 -47 68 -58 79 -52 60 -126 319 -147 514 -7 63
-17 125 -22 137 -16 33 -15 626 0 631 7 2 12 20 12 39 0 62 30 245 56 342 23
85 76 221 97 246 4 6 18 24 30 41 101 141 219 207 422 238 54 8 229 -3 290
-19z"/>
<path d="M27635 10284 c-22 -2 -89 -9 -150 -14 -167 -17 -425 -77 -425 -100 0
-6 -7 -10 -15 -10 -40 0 -313 -133 -322 -157 -3 -7 -10 -13 -15 -13 -22 0
-197 -139 -258 -205 -35 -38 -68 -72 -72 -73 -11 -5 -138 -188 -138 -199 0 -5
-10 -17 -21 -27 -22 -18 -126 -229 -149 -301 -7 -22 -16 -42 -21 -45 -20 -14
-88 -288 -114 -460 -70 -470 -15 -1083 124 -1383 16 -34 32 -73 36 -87 11 -37
104 -217 120 -233 7 -8 35 -47 60 -86 57 -88 209 -253 266 -289 14 -10 46 -35
71 -56 50 -43 107 -79 218 -134 41 -20 78 -41 81 -45 11 -15 230 -87 328 -108
112 -25 240 -46 366 -60 110 -13 533 -6 560 9 11 6 65 16 120 22 125 15 415
92 447 119 10 8 -31 161 -43 161 -5 0 -9 7 -9 14 0 8 -11 50 -24 93 -13 43
-45 153 -71 246 -27 92 -52 167 -56 167 -4 0 -10 18 -14 41 -6 35 -10 40 -29
36 -11 -3 -93 -24 -181 -48 l-160 -43 -231 0 c-163 -1 -238 3 -255 11 -13 7
-60 21 -104 33 -133 33 -226 76 -302 140 -90 76 -135 125 -165 178 -16 28 -33
52 -37 52 -18 0 -88 185 -116 305 -29 127 -55 383 -56 555 -1 118 30 343 67
493 50 199 157 380 286 482 116 92 125 98 197 127 127 51 240 71 416 72 193 1
266 -11 448 -70 76 -25 143 -42 147 -37 4 4 24 67 45 138 21 72 41 135 45 140
4 6 20 53 35 105 15 52 41 138 57 190 16 52 30 113 31 135 l2 39 -80 30 c-44
17 -83 34 -86 38 -10 14 -272 77 -389 93 -113 16 -386 27 -465 19z"/>
<path d="M11400 8250 l0 -1990 460 0 460 0 0 1990 0 1990 -460 0 -460 0 0
-1990z"/>
<path d="M16830 8250 l0 -1990 1210 0 1210 0 0 760 c0 690 -1 760 -16 760 -9
0 -80 -31 -157 -69 -78 -38 -185 -88 -237 -111 -52 -23 -117 -54 -145 -69 -27
-16 -85 -43 -127 -61 l-78 -34 0 -189 0 -189 -27 7 c-16 4 -187 10 -380 12
l-353 5 0 1579 0 1579 -450 0 -450 0 0 -1990z"/>
<path d="M19770 8250 l0 -1990 465 0 465 0 0 1990 0 1990 -465 0 -465 0 0
-1990z"/>
<path d="M21140 9840 l0 -400 470 0 470 0 0 -1590 0 -1590 475 0 475 0 -2
1590 -3 1590 371 0 372 0 25 83 c14 45 43 142 66 216 23 73 41 140 41 147 0 8
4 14 9 14 4 0 15 24 24 53 8 28 29 97 46 152 17 55 34 108 37 118 5 16 -68 17
-1435 17 l-1441 0 0 -400z"/>
<path d="M24440 8250 l0 -1990 460 0 460 0 0 1990 0 1990 -460 0 -460 0 0
-1990z"/>
<path d="M14328 3021 c-101 -33 -191 -116 -224 -208 -27 -78 -12 -228 32 -302
19 -31 100 -98 152 -125 15 -7 79 -30 142 -50 150 -48 177 -63 207 -114 46
-77 16 -168 -74 -223 -32 -20 -51 -24 -118 -23 -97 0 -171 29 -215 82 l-29 35
-38 -26 c-21 -14 -54 -39 -73 -56 l-35 -30 20 -37 c26 -49 70 -81 157 -112 64
-23 88 -26 198 -26 115 0 131 3 200 30 52 20 88 42 117 71 48 50 93 134 93
175 0 15 5 28 10 28 6 0 10 27 10 60 0 33 -4 60 -10 60 -5 0 -10 11 -10 25 0
59 -74 155 -150 194 -19 11 -82 34 -140 51 -141 44 -182 62 -219 99 -81 79
-64 197 34 245 25 13 68 21 116 24 85 4 125 -8 189 -59 l39 -32 66 57 c36 32
65 61 65 66 0 18 -55 72 -94 92 -69 35 -135 48 -251 47 -78 0 -127 -5 -167
-18z"/>
<path d="M18155 3027 c-27 -7 -83 -28 -123 -47 -61 -28 -88 -49 -154 -119
-121 -130 -168 -252 -168 -436 0 -193 50 -325 167 -441 85 -84 154 -126 260
-156 159 -46 448 -22 601 50 l52 24 0 299 0 299 -215 0 -215 0 0 -80 0 -80
125 0 125 0 0 -159 0 -159 -39 -15 c-116 -47 -291 -47 -406 -1 -57 23 -82 41
-138 98 -103 109 -133 194 -125 352 7 122 29 180 100 264 95 113 176 151 323
151 106 0 187 -23 258 -71 32 -22 64 -40 71 -40 12 0 116 111 116 124 0 13
-47 60 -80 80 -79 50 -165 68 -330 72 -104 2 -171 -1 -205 -9z"/>
<path d="M24800 3022 c-86 -29 -117 -49 -161 -104 -67 -86 -84 -131 -84 -226
1 -47 5 -86 11 -90 6 -4 14 -20 18 -36 24 -96 137 -178 326 -235 125 -38 166
-59 196 -102 23 -33 26 -46 22 -90 -6 -61 -29 -94 -93 -134 -43 -26 -57 -30
-124 -30 -62 0 -87 5 -136 28 -33 15 -72 41 -86 58 l-25 31 -72 -53 c-39 -30
-71 -59 -71 -66 -1 -19 69 -87 119 -116 25 -14 80 -33 122 -41 192 -40 367 2
467 110 70 76 86 121 86 244 0 94 -3 111 -26 155 -14 28 -35 55 -48 61 -12 6
-31 21 -42 33 -28 30 -56 42 -213 92 -117 37 -145 50 -174 79 -50 52 -65 86
-59 138 10 89 83 142 197 142 88 0 134 -15 180 -57 l40 -35 30 24 c61 45 110
90 110 99 0 22 -70 79 -130 105 -59 26 -77 29 -195 31 -104 2 -141 -1 -185
-15z"/>
<path d="M5011 2968 c-13 -29 -40 -89 -61 -133 -22 -44 -55 -120 -75 -170 -54
-134 -79 -189 -86 -195 -7 -5 -21 -38 -94 -217 -19 -45 -46 -106 -61 -135 -36
-70 -114 -259 -114 -275 0 -10 25 -13 99 -13 85 0 100 2 106 18 4 9 18 49 32
87 14 39 31 77 38 85 7 8 19 34 26 58 l12 42 270 -2 271 -3 34 -90 c20 -49 38
-92 42 -95 3 -3 14 -26 24 -52 l18 -48 99 0 c77 0 99 3 99 14 0 17 -61 169
-70 176 -4 3 -38 82 -75 175 -38 94 -83 199 -100 235 -18 36 -58 130 -90 210
-32 80 -62 147 -65 150 -4 3 -27 55 -51 115 l-45 110 -80 3 -80 3 -23 -53z
m107 -226 c16 -31 94 -229 124 -312 10 -30 30 -76 44 -102 l24 -48 -206 0
c-192 0 -206 1 -199 18 4 9 16 42 28 72 12 30 24 57 28 60 9 7 129 311 129
328 0 21 14 13 28 -16z"/>
<path d="M6960 2425 l0 -595 85 0 85 0 0 595 0 595 -85 0 -85 0 0 -595z"/>
<path d="M10127 3013 c-4 -3 -7 -271 -7 -595 l0 -588 90 0 90 0 0 595 0 595
-83 0 c-46 0 -87 -3 -90 -7z"/>
<path d="M11707 3014 c-4 -4 -7 -272 -7 -596 l0 -588 95 0 95 0 0 473 c0 398
2 468 13 447 24 -45 131 -204 153 -228 12 -13 43 -60 68 -103 26 -44 59 -93
73 -110 14 -16 58 -78 97 -137 39 -60 106 -161 148 -225 l78 -117 115 0 115 0
0 595 0 595 -90 0 -90 0 0 -472 0 -472 -26 35 c-31 42 -93 134 -114 172 -8 15
-30 46 -47 70 -18 23 -89 128 -158 232 -68 105 -137 207 -152 229 -16 21 -51
75 -80 120 l-51 81 -114 3 c-63 1 -117 -1 -121 -4z"/>
<path d="M16200 2425 l0 -595 90 0 90 0 0 595 0 595 -90 0 -90 0 0 -595z"/>
<path d="M20190 2425 l0 -595 90 0 90 0 0 265 0 265 295 0 295 0 0 -265 0
-265 90 0 90 0 0 595 0 595 -90 0 -90 0 0 -245 0 -245 -295 0 -295 0 0 245 0
245 -90 0 -90 0 0 -595z"/>
<path d="M22410 2935 l0 -85 190 0 190 0 0 -510 0 -510 90 0 90 0 0 510 0 510
185 0 185 0 0 85 0 85 -465 0 -465 0 0 -85z"/>
</g>
</svg>
